<?xml version="1.0" encoding="utf-8"?>
<!-- Generator: Adobe Illustrator 15.0.0, SVG Export Plug-In . SVG Version: 6.00 Build 0)  -->
<!DOCTYPE svg PUBLIC "-//W3C//DTD SVG 1.1//EN" "http://www.w3.org/Graphics/SVG/1.1/DTD/svg11.dtd">
<svg version="1.1" id="Layer_1" xmlns="http://www.w3.org/2000/svg" xmlns:xlink="http://www.w3.org/1999/xlink" x="0px" y="0px"
	 width="60px" height="40px" viewBox="0 0 60 40" enable-background="new 0 0 60 40" xml:space="preserve">
<g>
	<circle fill="#399399" cx="13.934" cy="34" r="2.5"/>
	<circle fill="#399399" cx="48" cy="34" r="2.5"/>
	<path fill="#399399" d="M45,25h-2c-0.553,0-1,0.447-1,1s0.447,1,1,1h2c0.553,0,1-0.447,1-1S45.553,25,45,25z"/>
	<path fill="#399399" d="M58.742,22.819l-3.896-1.558l-2.497-9.99C52.015,9.934,50.817,9,49.438,9h-5.292
		c1.305-4.03,1.798-7.52,1.845-7.865c0.038-0.286-0.048-0.575-0.238-0.792C45.563,0.125,45.289,0,45,0H8.934
		C8.449,0,8.034,0.348,7.949,0.825L7.384,4h-3.6c-0.552,0-1,0.448-1,1s0.448,1,1,1h3.243L6.671,8h-3.6c-0.552,0-1,0.448-1,1
		s0.448,1,1,1h3.243l-0.356,2h-3.6c-0.552,0-1,0.448-1,1s0.448,1,1,1h3.244l-0.356,2h-3.6c-0.552,0-1,0.448-1,1s0.448,1,1,1H4.89
		l-0.501,2.814c0,0.001,0,0.001,0,0.001l-2.437,13c-0.055,0.293,0.023,0.595,0.213,0.823S2.637,35,2.935,35h5.09
		c0.479,2.833,2.942,5,5.91,5s5.431-2.167,5.91-5H42.09c0.479,2.833,2.943,5,5.91,5s5.432-2.167,5.91-5H58c1.103,0,2-0.897,2-2
		v-8.323C60,23.854,59.507,23.125,58.742,22.819z M18.083,16H7.278l0.356-2h11.162c0.552,0,1-0.448,1-1s-0.448-1-1-1H7.99l0.356-2
		h11.163c0.552,0,1-0.448,1-1s-0.448-1-1-1H8.703l0.356-2h11.163c0.552,0,1-0.448,1-1s-0.448-1-1-1H9.415l0.356-2h34.05
		c-0.283,1.566-0.91,4.547-2.015,7.64c-0.003,0.007-0.009,0.013-0.012,0.021c-1.48,4.107-4.007,8.896-7.944,10.068
		c-0.043,0.012-0.086,0.024-0.128,0.036c-0.22,0.061-0.445,0.106-0.674,0.144c-0.064,0.01-0.128,0.023-0.193,0.032
		C32.576,19.977,32.293,20,32.002,20H6.565l0.356-2h11.162c0.552,0,1-0.448,1-1S18.636,16,18.083,16z M13.934,38
		c-2.205,0-3.999-1.793-4-3.998c0-0.001,0-0.001,0-0.002c0-2.206,1.794-4,4-4c2.205,0,4,1.794,4,4S16.14,38,13.934,38z M48,38
		c-2.206,0-4-1.794-4-4s1.794-4,4-4s4,1.794,4,4S50.206,38,48,38z M53.917,33c-0.004-0.023-0.014-0.044-0.018-0.067
		c-0.055-0.304-0.134-0.6-0.232-0.887c-0.019-0.052-0.038-0.104-0.058-0.155c-0.107-0.286-0.233-0.562-0.382-0.825
		c-0.021-0.039-0.046-0.075-0.068-0.112c-0.161-0.272-0.338-0.533-0.538-0.775c-0.006-0.007-0.012-0.013-0.018-0.02
		c-0.201-0.241-0.424-0.463-0.66-0.67c-0.027-0.023-0.052-0.048-0.078-0.07c-0.232-0.197-0.482-0.372-0.743-0.532
		c-0.044-0.026-0.087-0.054-0.132-0.08c-0.26-0.15-0.532-0.281-0.815-0.392c-0.05-0.02-0.1-0.037-0.149-0.055
		c-0.291-0.104-0.59-0.19-0.898-0.25c-0.04-0.007-0.08-0.011-0.12-0.018C48.679,28.035,48.344,28,48,28s-0.679,0.035-1.007,0.092
		c-0.04,0.007-0.08,0.011-0.12,0.018c-0.309,0.06-0.608,0.146-0.898,0.25c-0.051,0.018-0.1,0.035-0.149,0.055
		c-0.283,0.11-0.555,0.241-0.815,0.392c-0.045,0.026-0.088,0.054-0.132,0.08c-0.261,0.16-0.511,0.335-0.743,0.532
		c-0.026,0.022-0.051,0.047-0.078,0.07c-0.236,0.207-0.459,0.429-0.66,0.67c-0.006,0.007-0.012,0.013-0.018,0.02
		c-0.201,0.242-0.378,0.504-0.539,0.775c-0.022,0.038-0.046,0.073-0.067,0.111c-0.148,0.264-0.274,0.54-0.382,0.826
		c-0.021,0.052-0.039,0.104-0.058,0.155c-0.099,0.287-0.178,0.583-0.232,0.887c-0.004,0.023-0.014,0.044-0.018,0.067H19.851
		c-0.004-0.023-0.013-0.044-0.018-0.067c-0.055-0.304-0.133-0.6-0.232-0.886c-0.018-0.053-0.038-0.104-0.058-0.157
		c-0.107-0.285-0.233-0.562-0.381-0.824c-0.022-0.039-0.046-0.075-0.069-0.113c-0.161-0.271-0.337-0.532-0.538-0.774
		c-0.006-0.007-0.013-0.014-0.02-0.021c-0.2-0.24-0.422-0.461-0.657-0.667c-0.028-0.023-0.053-0.05-0.082-0.073
		c-0.231-0.196-0.48-0.371-0.74-0.53c-0.045-0.027-0.089-0.055-0.135-0.082c-0.26-0.149-0.531-0.279-0.813-0.39
		c-0.05-0.021-0.101-0.038-0.152-0.056c-0.29-0.104-0.588-0.19-0.897-0.25c-0.04-0.007-0.081-0.012-0.121-0.018
		C14.613,28.035,14.278,28,13.935,28h0l0,0c0,0,0,0,0,0c-0.344,0-0.679,0.035-1.008,0.092c-0.039,0.007-0.079,0.011-0.118,0.018
		c-0.311,0.06-0.61,0.146-0.902,0.251c-0.049,0.018-0.097,0.034-0.145,0.053c-0.285,0.111-0.559,0.243-0.82,0.395
		c-0.042,0.024-0.083,0.05-0.125,0.075c-0.264,0.161-0.516,0.339-0.75,0.537c-0.023,0.02-0.045,0.042-0.068,0.062
		c-0.243,0.212-0.472,0.439-0.678,0.688c-0.001,0.001-0.002,0.002-0.003,0.004c-0.205,0.246-0.385,0.513-0.549,0.79
		c-0.019,0.032-0.04,0.062-0.058,0.095c-0.151,0.268-0.28,0.55-0.389,0.841c-0.017,0.046-0.034,0.092-0.05,0.138
		c-0.102,0.293-0.182,0.594-0.237,0.904C8.03,32.962,8.021,32.98,8.018,33H4.14l2.062-11h25.8h0.001c0.003,0,0.005,0,0.008,0
		c0.313-0.001,0.622-0.02,0.928-0.053c0.153-0.017,0.301-0.046,0.45-0.07c0.145-0.023,0.289-0.044,0.432-0.074
		c0.201-0.044,0.396-0.099,0.591-0.155c0.08-0.024,0.161-0.045,0.241-0.071c0.234-0.076,0.464-0.164,0.689-0.259
		c0.033-0.015,0.066-0.027,0.1-0.042C39.285,19.6,41.824,15.244,43.443,11h5.995c0.46,0,0.858,0.312,0.971,0.758L52.72,21h-4.45
		c-0.7,0-1.27-0.57-1.27-1.27V15c0-0.552-0.447-1-1-1s-1,0.448-1,1v4.73c0,1.803,1.467,3.27,3.27,3.27h5.538L58,24.677L58.002,33
		H53.917z"/>
</g>
</svg>
