<?xml version="1.0" encoding="utf-8"?>
<!-- Generator: Adobe Illustrator 15.0.0, SVG Export Plug-In . SVG Version: 6.00 Build 0)  -->
<!DOCTYPE svg PUBLIC "-//W3C//DTD SVG 1.1//EN" "http://www.w3.org/Graphics/SVG/1.1/DTD/svg11.dtd">
<svg version="1.1" id="Layer_1" xmlns="http://www.w3.org/2000/svg" xmlns:xlink="http://www.w3.org/1999/xlink" x="0px" y="0px"
	 width="32px" height="32px" viewBox="0 0 32 32" enable-background="new 0 0 32 32" xml:space="preserve">
<g>
	<path fill="#212121" d="M6.792,0.58H0.846c-0.468,0-0.847,0.38-0.847,0.848v5.945c0,0.469,0.379,0.848,0.847,0.848h5.946
		c0.468,0,0.848-0.378,0.848-0.848V1.428C7.64,0.96,7.261,0.58,6.792,0.58z M5.944,6.524H1.696V2.276h4.249V6.524z"/>
	<path fill="#212121" d="M6.792,10.251H0.846c-0.468,0-0.847,0.38-0.847,0.849v5.945c0,0.468,0.379,0.848,0.847,0.848h5.946
		c0.468,0,0.848-0.38,0.848-0.848v-5.945C7.64,10.631,7.261,10.251,6.792,10.251z M5.944,16.196H1.696v-4.248h4.249V16.196z"/>
	<path fill="#212121" d="M6.792,19.924H0.846c-0.468,0-0.847,0.379-0.847,0.848v5.945c0,0.466,0.379,0.848,0.847,0.848h5.946
		c0.468,0,0.848-0.382,0.848-0.848v-5.945C7.64,20.303,7.261,19.924,6.792,19.924z M5.944,25.869H1.696V21.62h4.249V25.869z"/>
	<path fill="#212121" d="M16.971,0.58h-5.946c-0.468,0-0.847,0.38-0.847,0.848v5.945c0,0.469,0.379,0.848,0.847,0.848h5.946
		c0.468,0,0.848-0.378,0.848-0.848V1.428C17.819,0.96,17.439,0.58,16.971,0.58z M16.124,6.524h-4.249V2.276h4.249V6.524z"/>
	<path fill="#212121" d="M16.971,10.251h-5.946c-0.468,0-0.847,0.38-0.847,0.849v5.945c0,0.468,0.379,0.848,0.847,0.848h5.946
		c0.468,0,0.848-0.38,0.848-0.848v-5.945C17.819,10.631,17.439,10.251,16.971,10.251z M16.124,16.196h-4.249v-4.248h4.249V16.196z"
		/>
	<path fill="#212121" d="M16.971,19.924h-5.946c-0.468,0-0.847,0.379-0.847,0.848v5.945c0,0.466,0.379,0.848,0.847,0.848h5.946
		c0.468,0,0.848-0.382,0.848-0.848v-5.945C17.819,20.303,17.439,19.924,16.971,19.924z M16.124,25.869h-4.249V21.62h4.249V25.869z"
		/>
	<path fill="#212121" d="M27.149,0.58h-5.945c-0.468,0-0.848,0.38-0.848,0.848v5.945c0,0.469,0.38,0.848,0.848,0.848h5.945
		c0.469,0,0.85-0.378,0.85-0.848V1.428C27.999,0.96,27.618,0.58,27.149,0.58z M26.302,6.524h-4.248V2.276h4.248V6.524z"/>
	<path fill="#212121" d="M27.149,10.251h-5.945c-0.468,0-0.848,0.38-0.848,0.849v5.945c0,0.468,0.38,0.848,0.848,0.848h5.945
		c0.469,0,0.85-0.38,0.85-0.848v-5.945C27.999,10.631,27.618,10.251,27.149,10.251z M26.302,16.196h-4.248v-4.248h4.248V16.196z"/>
	<path fill="#212121" d="M27.149,19.924h-5.945c-0.468,0-0.848,0.379-0.848,0.848v5.945c0,0.466,0.38,0.848,0.848,0.848h5.945
		c0.469,0,0.85-0.382,0.85-0.848v-5.945C27.999,20.303,27.618,19.924,27.149,19.924z M26.302,25.869h-4.248V21.62h4.248V25.869z"/>
</g>
</svg>
