<?xml version="1.0" encoding="utf-8"?>
<!-- Generator: Adobe Illustrator 15.0.0, SVG Export Plug-In . SVG Version: 6.00 Build 0)  -->
<!DOCTYPE svg PUBLIC "-//W3C//DTD SVG 1.1//EN" "http://www.w3.org/Graphics/SVG/1.1/DTD/svg11.dtd">
<svg version="1.1" id="Layer_1" xmlns="http://www.w3.org/2000/svg" xmlns:xlink="http://www.w3.org/1999/xlink" x="0px" y="0px"
	 width="32px" height="32px" viewBox="0 0 32 32" enable-background="new 0 0 32 32" xml:space="preserve">
<g>
	<path fill="#212121" d="M26.555,22.475H12.362c-0.798,0-1.445,0.647-1.445,1.445c0,0.799,0.647,1.446,1.445,1.446h14.193
		c0.799,0,1.445-0.647,1.445-1.446C28,23.122,27.354,22.475,26.555,22.475z"/>
	<path fill="#212121" d="M26.555,12.583H12.362c-0.798,0-1.445,0.646-1.445,1.446c0,0.799,0.647,1.446,1.445,1.446h14.193
		c0.799,0,1.445-0.648,1.445-1.446C28,13.23,27.354,12.583,26.555,12.583z"/>
	<path fill="#212121" d="M12.361,5.583h14.193C27.354,5.583,28,4.935,28,4.136c0-0.798-0.646-1.445-1.445-1.445H12.362
		c-0.798,0-1.445,0.647-1.445,1.445C10.916,4.935,11.563,5.583,12.361,5.583z"/>
	<path fill="#212121" d="M6.948,0.229h-6.08C0.388,0.229,0,0.617,0,1.097v6.079c0,0.479,0.388,0.868,0.868,0.868h6.08
		c0.479,0,0.867-0.388,0.867-0.868V1.097C7.816,0.617,7.428,0.229,6.948,0.229z M6.081,6.308H1.734V1.963h4.346V6.308z"/>
	<path fill="#212121" d="M6.948,10.122h-6.08C0.388,10.122,0,10.51,0,10.988v6.082c0,0.479,0.388,0.865,0.868,0.865h6.08
		c0.479,0,0.867-0.387,0.867-0.865v-6.082C7.816,10.51,7.428,10.122,6.948,10.122z M6.081,16.201H1.734v-4.344h4.346V16.201z"/>
	<path fill="#212121" d="M6.948,20.012h-6.08C0.388,20.012,0,20.399,0,20.88v6.079c0,0.48,0.388,0.868,0.868,0.868h6.08
		c0.479,0,0.867-0.388,0.867-0.868V20.88C7.816,20.399,7.428,20.012,6.948,20.012z M6.081,26.093H1.734v-4.347h4.346V26.093z"/>
</g>
</svg>
