<?xml version="1.0" encoding="utf-8"?>
<!-- Generator: Adobe Illustrator 15.0.0, SVG Export Plug-In . SVG Version: 6.00 Build 0)  -->
<!DOCTYPE svg PUBLIC "-//W3C//DTD SVG 1.1//EN" "http://www.w3.org/Graphics/SVG/1.1/DTD/svg11.dtd">
<svg version="1.1" id="Layer_1" xmlns="http://www.w3.org/2000/svg" xmlns:xlink="http://www.w3.org/1999/xlink" x="0px" y="0px"
	 width="80px" height="80px" viewBox="0 0 80 80" enable-background="new 0 0 80 80" xml:space="preserve">
<g>
	<path fill="#FFF799" d="M63.415,38.292c-8.241,0-16.586,5.949-16.586,17.317v21.464c0,1.61,1.312,2.927,2.927,2.927h27.317
		C78.688,80,80,78.686,80,77.073V55.609C80,44.241,71.654,38.292,63.415,38.292z M78.049,77.073c0,0.536-0.438,0.976-0.976,0.976
		H49.756c-0.537,0-0.977-0.438-0.977-0.976V56.585h29.27V77.073L78.049,77.073z M52.741,54.634
		c0.448-7.184,5.727-10.487,10.674-10.487c2.815,0,5.438,1.011,7.378,2.844c1.99,1.881,3.118,4.511,3.312,7.645L52.741,54.634
		L52.741,54.634z M76.055,54.634c-0.459-8.163-6.576-12.438-12.64-12.438c-6.062,0-12.165,4.281-12.627,12.438h-1.953
		c0.468-9.438,7.552-14.39,14.58-14.39c7.026,0,14.108,4.951,14.577,14.39H76.055z"/>
	<path fill="#FFF799" d="M60.174,66.979c0.117,0.106,0.312,0.312,0.312,0.537v7.606c0,0.537,0.438,0.976,0.977,0.976h3.903
		c0.538,0,0.975-0.438,0.975-0.976v-7.606c0-0.226,0.197-0.431,0.312-0.533c1.059-0.931,1.642-2.194,1.642-3.566
		c0-2.689-2.188-4.878-4.878-4.878s-4.878,2.188-4.878,4.878C58.537,64.787,59.119,66.057,60.174,66.979z M63.415,60.486
		c1.614,0,2.926,1.315,2.926,2.929c0,0.8-0.347,1.547-0.979,2.106c-0.625,0.554-0.971,1.263-0.971,1.994v6.631h-1.951v-6.631
		c0-0.731-0.344-1.44-0.975-1.998c-0.63-0.557-0.979-1.3-0.979-2.104C60.486,61.803,61.801,60.486,63.415,60.486z"/>
	<path fill="#FFF799" d="M75.122,0H4.878C2.188,0,0,2.188,0,4.878v42.929c0,2.689,2.188,4.877,4.878,4.877h39.375
		c0.54,0,0.976-0.438,0.976-0.977s-0.436-0.977-0.976-0.977H4.878c-1.614,0-2.927-1.313-2.927-2.926V4.878
		c0-1.612,1.313-2.927,2.927-2.927h70.244c1.614,0,2.927,1.315,2.927,2.927v38.285c0,0.537,0.438,0.976,0.977,0.976
		s0.976-0.438,0.976-0.976V4.878C80,2.188,77.812,0,75.122,0z"/>
	<path fill="#FFF799" d="M10.731,24.39h7.805c1.614,0,2.927-1.315,2.927-2.927V15.61c0-1.612-1.313-2.927-2.927-2.927h-7.805
		c-1.614,0-2.927,1.315-2.927,2.927v5.854C7.805,23.075,9.118,24.39,10.731,24.39z M12.683,19.512H9.756v-1.951h2.927
		c0.539,0,0.975-0.438,0.975-0.976c0-0.537-0.436-0.976-0.975-0.976H9.756c0-0.538,0.438-0.976,0.975-0.976h7.805
		c0.537,0,0.976,0.438,0.976,0.976h-2.927c-0.539,0-0.976,0.438-0.976,0.976s0.437,0.976,0.976,0.976h2.927v1.951h-2.927
		c-0.539,0-0.976,0.438-0.976,0.976c0,0.537,0.437,0.976,0.976,0.976h2.927c0,0.537-0.438,0.976-0.976,0.976h-7.805
		c-0.537,0-0.975-0.438-0.975-0.976h2.927c0.539,0,0.975-0.438,0.975-0.976C13.658,19.95,13.222,19.512,12.683,19.512z"/>
	<path fill="#FFF799" d="M21.463,32.195c0-0.538-0.437-0.976-0.976-0.976H8.781c-0.54,0-0.976,0.438-0.976,0.976
		c0,0.537,0.437,0.975,0.976,0.975h11.707C21.027,33.17,21.463,32.732,21.463,32.195z"/>
	<path fill="#FFF799" d="M38.375,32.195c0-0.538-0.437-0.976-0.976-0.976H25.692c-0.539,0-0.976,0.438-0.976,0.976
		c0,0.537,0.437,0.975,0.976,0.975h11.707C37.938,33.17,38.375,32.732,38.375,32.195z"/>
	<path fill="#FFF799" d="M41.625,32.195c0,0.537,0.438,0.975,0.977,0.975h11.707c0.539,0,0.976-0.438,0.976-0.975
		c0-0.538-0.437-0.976-0.976-0.976H42.602C42.062,31.219,41.625,31.658,41.625,32.195z"/>
	<path fill="#FFF799" d="M71.221,31.219H59.514c-0.541,0-0.977,0.438-0.977,0.976c0,0.537,0.436,0.975,0.977,0.975h11.707
		c0.538,0,0.975-0.438,0.975-0.975C72.193,31.658,71.759,31.219,71.221,31.219z"/>
	<path fill="#FFF799" d="M8.781,42.927c-0.54,0-0.976,0.438-0.976,0.976c0,0.539,0.437,0.977,0.976,0.977h7.805
		c0.539,0,0.976-0.438,0.976-0.977c0-0.536-0.437-0.976-0.976-0.976H8.781z"/>
	<path fill="#FFF799" d="M20.488,44.878h11.708c0.539,0,0.975-0.438,0.975-0.976s-0.436-0.977-0.975-0.977H20.488
		c-0.539,0-0.976,0.438-0.976,0.977C19.512,44.439,19.949,44.878,20.488,44.878z"/>
	<path fill="#FFF799" d="M56.312,50.73c-0.541,0-0.978,0.438-0.978,0.977s0.437,0.977,0.978,0.977h14.205
		c0.539,0,0.976-0.438,0.976-0.977s-0.437-0.977-0.976-0.977H56.312z"/>
	<path fill="#FFF799" d="M72.193,8.781c0-0.538-0.436-0.976-0.975-0.976H47.807c-0.541,0-0.978,0.438-0.978,0.976v7.805
		c0,0.538,0.437,0.976,0.978,0.976h23.414c0.538,0,0.975-0.438,0.975-0.976V8.781H72.193z M70.244,15.61H48.779V9.756h21.465V15.61z
		"/>
</g>
</svg>
