<?xml version="1.0" encoding="utf-8"?>
<!-- Generator: Adobe Illustrator 15.0.0, SVG Export Plug-In . SVG Version: 6.00 Build 0)  -->
<!DOCTYPE svg PUBLIC "-//W3C//DTD SVG 1.1//EN" "http://www.w3.org/Graphics/SVG/1.1/DTD/svg11.dtd">
<svg version="1.1" id="Layer_1" xmlns="http://www.w3.org/2000/svg" xmlns:xlink="http://www.w3.org/1999/xlink" x="0px" y="0px"
	 width="80px" height="80px" viewBox="0 0 80 80" enable-background="new 0 0 80 80" xml:space="preserve">
<g>
	<path fill="#FFF799" d="M64.734,61.061c-0.053-0.064-0.117-0.123-0.189-0.168l-0.592-0.403h7.265c0.537,0,0.976-0.438,0.976-0.976
		V0.976C72.193,0.438,71.755,0,71.218,0H0.976C0.438,0,0,0.438,0,0.976v58.538c0,0.536,0.438,0.976,0.976,0.976h12.682v3.266
		c0,0.995,0.5,1.917,1.334,2.466l9.035,5.907l19.512,7.806c0.627,0.221,1.117-0.164,1.27-0.545c0.197-0.5-0.047-1.068-0.545-1.271
		l-19.34-7.714l-8.861-5.814c-0.286-0.188-0.454-0.499-0.454-0.835v-3.266h3.906c0.018,1.352,0.97,2.536,2.271,2.823l14.364,3.354
		c0.133,0.034,0.274,0.034,0.415,0.007c2.039-0.411,12.214-2.687,12.214-7.159c0-0.257-0.1-0.5-0.278-0.684l-8.837-9.055
		l1.818-2.256l21.865,14.916l14.938,17.229c0.274,0.335,0.886,0.505,1.375,0.095c0.414-0.344,0.45-0.968,0.096-1.375L64.734,61.061z
		 M31.219,1.951h9.756v17.561h-9.756V1.951z M36.387,64.718l-14.17-3.308c-0.417-0.092-0.729-0.484-0.748-0.922H46.4
		C44.947,62.254,40.005,63.962,36.387,64.718z M61.093,58.537L41.836,45.396c-0.419-0.282-0.99-0.198-1.307,0.193l-2.927,3.633
		c-0.312,0.385-0.286,0.94,0.061,1.295l7.825,8.02H1.951V1.951h27.316v18.537c0,0.538,0.438,0.976,0.976,0.976h11.708
		c0.537,0,0.975-0.438,0.975-0.976V1.951h27.316v56.586H61.093z"/>
	<path fill="#FFF799" d="M28.292,39.024H8.78c-0.537,0-0.976,0.438-0.976,0.976s0.438,0.977,0.976,0.977h19.512
		c0.538,0,0.976-0.438,0.976-0.977C29.268,39.463,28.83,39.024,28.292,39.024z"/>
	<path fill="#FFF799" d="M28.292,42.927H8.78c-0.537,0-0.976,0.438-0.976,0.976c0,0.539,0.438,0.978,0.976,0.978h19.512
		c0.538,0,0.976-0.438,0.976-0.978C29.268,43.365,28.83,42.927,28.292,42.927z"/>
	<path fill="#FFF799" d="M28.292,46.83H8.78c-0.537,0-0.976,0.438-0.976,0.975s0.438,0.978,0.976,0.978h19.512
		c0.538,0,0.976-0.439,0.976-0.978C29.268,47.268,28.83,46.83,28.292,46.83z"/>
</g>
</svg>
