<?xml version="1.0" encoding="utf-8"?>
<!-- Generator: Adobe Illustrator 15.0.0, SVG Export Plug-In . SVG Version: 6.00 Build 0)  -->
<!DOCTYPE svg PUBLIC "-//W3C//DTD SVG 1.1//EN" "http://www.w3.org/Graphics/SVG/1.1/DTD/svg11.dtd">
<svg version="1.1" id="Layer_1" xmlns="http://www.w3.org/2000/svg" xmlns:xlink="http://www.w3.org/1999/xlink" x="0px" y="0px"
	 width="32px" height="32px" viewBox="0 0 32 32" enable-background="new 0 0 32 32" xml:space="preserve">
<g>
	<rect x="19.229" y="22.376" width="12.771" height="2.129"/>
	<rect x="14.974" y="11.188" width="17.026" height="2.126"/>
	<rect x="14.974" y="5.595" width="17.026" height="2.126"/>
	<rect x="14.974" width="17.026" height="2.126"/>
	<rect x="21.358" y="16.782" width="10.642" height="2.126"/>
	<path d="M16.657,19.903c0.414-0.413,0.414-1.087,0-1.504c-0.208-0.207-0.481-0.312-0.753-0.312s-0.544,0.105-0.752,0.312
		l-4.967,4.97V0H8.058v23.369l-4.967-4.97c-0.208-0.206-0.48-0.311-0.753-0.311c-0.271,0-0.544,0.104-0.751,0.311
		c-0.417,0.417-0.417,1.091,0,1.506l6.784,6.783c0.414,0.415,1.087,0.415,1.503,0L16.657,19.903z"/>
</g>
</svg>
