<?xml version="1.0" encoding="utf-8"?>
<!-- Generator: Adobe Illustrator 15.0.0, SVG Export Plug-In . SVG Version: 6.00 Build 0)  -->
<!DOCTYPE svg PUBLIC "-//W3C//DTD SVG 1.1//EN" "http://www.w3.org/Graphics/SVG/1.1/DTD/svg11.dtd">
<svg version="1.1" id="Layer_1" xmlns="http://www.w3.org/2000/svg" xmlns:xlink="http://www.w3.org/1999/xlink" x="0px" y="0px"
	 width="80px" height="80px" viewBox="0 0 80 80" enable-background="new 0 0 80 80" xml:space="preserve">
<g>
	<path fill="#FFF799" d="M34.794,60.912l4.392,6.594c0.387,0.58,1.241,0.58,1.628,0l4.392-6.594h15.863
		c1.826,0,3.322-1.494,3.322-3.322V31.805c0-1.831-1.486-3.315-3.316-3.315H18.929c-1.833,0-3.319,1.486-3.319,3.319v25.785
		c0,1.832,1.485,3.318,3.317,3.318H34.794z M17.561,57.59V31.809c0-0.754,0.613-1.368,1.366-1.368h42.147
		c0.75,0,1.365,0.614,1.365,1.368V57.59c0,0.756-0.615,1.371-1.365,1.371H44.684c-0.328,0-0.631,0.164-0.812,0.434L40,65.207
		l-3.872-5.812c-0.181-0.27-0.486-0.434-0.812-0.434H18.927C18.174,58.961,17.561,58.346,17.561,57.59z"/>
	<path fill="#FFF799" d="M77.072,30.833h-0.975v-0.978c0-1.616-1.314-2.929-2.928-2.929h-1.346C69.461,11.279,55.936-0.417,40-0.417
		c-15.935,0-29.461,11.696-31.827,27.344H6.829c-1.614,0-2.927,1.313-2.927,2.929v0.978H2.926C1.286,30.833,0,32.12,0,33.762v19.531
		c0,1.643,1.286,2.93,2.927,2.93h0.976v0.977c0,1.615,1.313,2.932,2.927,2.932h3.903c1.614,0,2.927-1.316,2.927-2.932V29.856
		c0-1.616-1.313-2.929-2.927-2.929h-0.587C12.49,12.375,25.129,1.535,40,1.535c14.872,0,27.512,10.841,29.854,25.393h-0.586
		c-1.611,0-2.926,1.313-2.926,2.929v27.343c0,1.615,1.314,2.932,2.926,2.932h0.936c-0.195,4.848-1.709,8.5-4.545,10.828
		c-4.439,3.646-10.928,3.174-13.055,2.896c-0.402-2.291-2.397-4.035-4.799-4.035h-3.902c-2.691,0-4.878,2.189-4.878,4.881
		c0,2.693,2.187,4.883,4.878,4.883h3.902c2.307,0,4.239-1.611,4.744-3.768c0.727,0.092,1.779,0.189,3.049,0.189
		c3.221,0,7.744-0.623,11.289-3.529c3.307-2.713,5.059-6.877,5.262-12.346h1.021c1.613,0,2.928-1.316,2.928-2.932v-0.977h0.975
		c1.643,0,2.928-1.287,2.928-2.93V33.762C80,32.12,78.715,30.833,77.072,30.833z M3.902,54.271H2.926
		c-0.556,0-0.976-0.422-0.976-0.979V33.762c0-0.556,0.419-0.978,0.976-0.978h0.976V54.271z M10.731,28.878
		c0.537,0,0.976,0.438,0.976,0.978v27.343c0,0.539-0.438,0.98-0.976,0.98H6.829c-0.537,0-0.976-0.441-0.976-0.98V29.856
		c0-0.539,0.438-0.978,0.976-0.978H10.731z M47.805,77.633h-3.902c-1.615,0-2.927-1.314-2.927-2.932c0-1.615,1.312-2.93,2.927-2.93
		h3.902c1.611,0,2.927,1.314,2.927,2.93C50.731,76.318,49.416,77.633,47.805,77.633z M74.146,57.199c0,0.539-0.439,0.98-0.977,0.98
		h-3.902c-0.537,0-0.975-0.441-0.975-0.98V29.856c0-0.539,0.438-0.978,0.975-0.978h3.902c0.537,0,0.977,0.438,0.977,0.978V57.199z
		 M78.049,53.293c0,0.557-0.42,0.979-0.977,0.979h-0.975V32.785h0.975c0.557,0,0.977,0.421,0.977,0.978V53.293z"/>
</g>
</svg>
